<svg width="22" height="22" viewBox="0 0 22 22" fill="none" xmlns="http://www.w3.org/2000/svg">
<path fill-rule="evenodd" clip-rule="evenodd" d="M4.74125 11C4.74125 10.2855 4.85985 9.60037 5.07177 8.95791L1.36443 6.12695C0.641863 7.59391 0.234863 9.247 0.234863 11C0.234863 12.7515 0.64152 14.4034 1.36288 15.8695L5.06816 13.0331C4.8583 12.3935 4.74125 11.711 4.74125 11Z" fill="#FBBC05"/>
<path fill-rule="evenodd" clip-rule="evenodd" d="M11.2503 4.50003C12.8025 4.50003 14.2045 5.05003 15.3061 5.94997L18.5105 2.75C16.5578 1.04998 14.0543 0 11.2503 0C6.89709 0 3.15571 2.48944 1.36426 6.127L5.07143 8.95795C5.92565 6.36505 8.3606 4.50003 11.2503 4.50003Z" fill="#EA4335"/>
<path fill-rule="evenodd" clip-rule="evenodd" d="M11.2503 17.4999C8.36077 17.4999 5.92582 15.6349 5.0716 13.042L1.36426 15.8724C3.15571 19.5105 6.89709 21.9999 11.2503 21.9999C13.9371 21.9999 16.5023 21.0459 18.4275 19.2584L14.9085 16.5379C13.9156 17.1634 12.6652 17.4999 11.2503 17.4999Z" fill="#34A853"/>
<path fill-rule="evenodd" clip-rule="evenodd" d="M21.7648 11.0002C21.7648 10.3502 21.6646 9.6501 21.5144 9.00024H11.25V13.2502H17.1584C16.8629 14.6993 16.0589 15.8132 14.9082 16.5382L18.4272 19.2586C20.4494 17.3817 21.7648 14.5857 21.7648 11.0002Z" fill="#4285F4"/>
</svg>
